<svg t="1624009442588" class="icon" viewBox="0 0 1024 1024" version="1.1" xmlns="http://www.w3.org/2000/svg" p-id="6289" width="200" height="200"><path d="M546.841529 95.14701c-232.444003 0-420.558381 163.640987-420.558381 365.496322 0 123.849726 71.876004 233.972822 180.454932 301.232692v113.180736c0 15.286148 10.700713 24.458041 22.944571 24.458041 4.585435 0 9.187243-1.51347 12.229533-3.057639l114.693182-76.462462c29.075199 6.114255 58.118676 7.658424 88.706321 7.658423 232.444003 0 420.543032-163.640987 420.543032-365.496321 1.547239-203.368804-186.550767-367.009791-419.01319-367.009792z m0 671.332869c-26.002211 0-52.004421-3.057639-77.991281-7.658424l-12.244882-3.057639c-7.643074-1.51347-15.286148 0-22.944572 4.601808l-10.685363 7.627725-55.061037 36.718273v-59.632146c0-10.716063-6.114255-21.432125-15.286148-26.00221l-15.301498-9.171894c-94.821599-56.605206-151.396105-149.867286-151.396105-247.7455 0-168.211073 160.583348-304.305681 359.382067-304.305681 198.814068 0 359.366717 136.094608 359.366717 304.305681 1.547239 166.682253-160.549579 304.320007-357.837898 304.320007z m-238.57463-295.151184" fill="" p-id="6290"></path></svg>